# xmcd CD database file
#
# Track frame offsets:
#	150
#	20830
#	41315
#	67885
#	89007
#	109450
#	121707
#	130955
#	158512
#	173047
#	191685
#	212865
#	242085
#	273940
#	290957
#	307782
#
# Disc length: 4559 seconds
#
# Revision: 0
# Processed by: cddbd v1.5.2PL0 Copyright (c) Steve Scherf et al.
# Submitted via: CDex 1.51
#
DISCID=e411cd10
DTITLE=Dixieland - Jazz im Zentrum - Highlights II
DYEAR=1900
DGENRE=Jazz
TTITLE0=Bourbon Street Parade - The Chris Barber Jazz&Blues Band
TTITLE1=Nuages - Greentown Jazz Band
TTITLE2=Do You Know What It Means - Terry Lightfoot And His Band
TTITLE3=Where You There - Lillian Boutté
TTITLE4=It's Tight Like That - The Chris Barber Jubilee Band
TTITLE5=On A Monday - Lonnie Donegan
TTITLE6=Burn My Body - Lonnie Donegan
TTITLE7=Rio Negro - Batida
TTITLE8=Aces In The Whole - The Dutsch Swing College Band
TTITLE9=Ooh Poo Pah Doo - Supercharge
TTITLE10=Agua De Beber - Woodhouse and Beverly Daily
TTITLE11=Klausstraße - Klaus Weiss Trio
TTITLE12=Ballad Medley - Bernard Berkhout's Swingmates
TTITLE13=Jo Avery's Blues - Monty Sunshine's Jazz Band
TTITLE14=Smoke Rings - Groove Juice Special and Sweet Substitute 
TTITLE15=Glad Hamp - / Lionel Hampton and His Giants Of Jazz
EXTD=
EXTT0=
EXTT1=
EXTT2=
EXTT3=
EXTT4=
EXTT5=
EXTT6=
EXTT7=
EXTT8=
EXTT9=
EXTT10=
EXTT11=
EXTT12=
EXTT13=
EXTT14=
EXTT15=
PLAYORDER=
